<svg width="51" height="50" viewBox="0 0 51 50" fill="none" xmlns="http://www.w3.org/2000/svg">
<circle cx="25.5" cy="25" r="25" fill="#0941CA"/>
<g clip-path="url(#clip0_5_69)">
<path d="M31.235 15.25H26.94C26.54 15.25 26.155 15.4023 25.86 15.6766L20.945 20.2469C20.94 20.252 20.935 20.2621 20.93 20.2672C20.1 21.0594 20.115 22.3238 20.825 23.1109C21.46 23.8168 22.795 24.0047 23.63 23.248C23.635 23.243 23.645 23.243 23.65 23.2379L27.645 19.5207C27.97 19.2211 28.48 19.2414 28.775 19.5715C29.075 19.9016 29.05 20.4145 28.725 20.7191L27.42 21.9328L34.7 27.9352C34.845 28.057 34.975 28.1891 35.095 28.3262V18.5L32.365 15.7273C32.07 15.4227 31.66 15.25 31.235 15.25ZM36.7 18.5102V29.8801C36.7 30.7789 37.415 31.5051 38.3 31.5051H41.5V18.5102H36.7ZM39.1 29.8801C38.66 29.8801 38.3 29.5145 38.3 29.0676C38.3 28.6207 38.66 28.2551 39.1 28.2551C39.54 28.2551 39.9 28.6207 39.9 29.0676C39.9 29.5145 39.54 29.8801 39.1 29.8801ZM9.5 31.5H12.7C13.585 31.5 14.3 30.7738 14.3 29.875V18.5102H9.5V31.5ZM11.9 28.2551C12.34 28.2551 12.7 28.6207 12.7 29.0676C12.7 29.5145 12.34 29.8801 11.9 29.8801C11.46 29.8801 11.1 29.5145 11.1 29.0676C11.1 28.6156 11.46 28.2551 11.9 28.2551ZM33.695 29.1996L26.23 23.0449L24.73 24.4414C23.245 25.8176 20.97 25.6855 19.645 24.218C18.3 22.725 18.405 20.4145 19.865 19.0535L23.955 15.25H19.765C19.34 15.25 18.935 15.4227 18.635 15.7273L15.9 18.5V29.8699H16.815L21.34 34.0289C22.71 35.1613 24.725 34.948 25.84 33.5566L25.85 33.5465L26.745 34.3336C27.54 34.9937 28.715 34.8668 29.36 34.0594L30.93 32.0992L31.2 32.3227C31.885 32.8863 32.895 32.7848 33.45 32.084L33.925 31.4898C34.485 30.7891 34.38 29.7684 33.695 29.1996Z" fill="#FAFAFA"/>
</g>
<defs>
<clipPath id="clip0_5_69">
<rect width="32" height="32" fill="white" transform="translate(9.5 9)"/>
</clipPath>
</defs>
</svg>
