<svg width="40" height="40" viewBox="0 0 40 40" fill="none" xmlns="http://www.w3.org/2000/svg">
<g clip-path="url(#clip0_13_55)">
<path d="M20 26.25C23.4518 26.25 26.25 23.4518 26.25 20C26.25 16.5482 23.4518 13.75 20 13.75C16.5482 13.75 13.75 16.5482 13.75 20C13.75 23.4518 16.5482 26.25 20 26.25Z" stroke="#FAFAFA" stroke-width="3" stroke-miterlimit="10"/>
<path d="M27.5 5H12.5C8.35786 5 5 8.35786 5 12.5V27.5C5 31.6421 8.35786 35 12.5 35H27.5C31.6421 35 35 31.6421 35 27.5V12.5C35 8.35786 31.6421 5 27.5 5Z" stroke="#FAFAFA" stroke-width="3" stroke-linecap="round" stroke-linejoin="round"/>
<path d="M28.125 13.75C29.1605 13.75 30 12.9105 30 11.875C30 10.8395 29.1605 10 28.125 10C27.0895 10 26.25 10.8395 26.25 11.875C26.25 12.9105 27.0895 13.75 28.125 13.75Z" fill="#FAFAFA"/>
</g>
<defs>
<clipPath id="clip0_13_55">
<rect width="40" height="40" fill="white"/>
</clipPath>
</defs>
</svg>
