<svg width="51" height="50" viewBox="0 0 51 50" fill="none" xmlns="http://www.w3.org/2000/svg">
<circle cx="25.5" cy="25" r="25" fill="#0941CA"/>
<g clip-path="url(#clip0_5_57)">
<path d="M21.704 16.2107C23.3934 13.1814 24.2374 11.6667 25.5 11.6667C26.7627 11.6667 27.6067 13.1814 29.296 16.2107L29.7334 16.9947C30.2134 17.856 30.4534 18.2867 30.8267 18.5707C31.2 18.8547 31.6667 18.96 32.6 19.1707L33.448 19.3627C36.728 20.1054 38.3667 20.476 38.7574 21.7307C39.1467 22.984 38.0294 24.292 35.7934 26.9067L35.2147 27.5827C34.58 28.3254 34.2614 28.6974 34.1187 29.156C33.976 29.616 34.024 30.112 34.12 31.1027L34.208 32.0054C34.5454 35.4947 34.7147 37.2387 33.6934 38.0134C32.672 38.788 31.136 38.0814 28.0667 36.668L27.2707 36.3027C26.3987 35.9 25.9627 35.7 25.5 35.7C25.0374 35.7 24.6014 35.9 23.7294 36.3027L22.9347 36.668C19.864 38.0814 18.328 38.788 17.308 38.0147C16.2854 37.2387 16.4547 35.4947 16.792 32.0054L16.88 31.104C16.976 30.112 17.024 29.616 16.88 29.1574C16.7387 28.6974 16.42 28.3254 15.7854 27.584L15.2067 26.9067C12.9707 24.2934 11.8534 22.9854 12.2427 21.7307C12.632 20.476 14.2734 20.104 17.5534 19.3627L18.4014 19.1707C19.3334 18.96 19.7987 18.8547 20.1734 18.5707C20.548 18.2867 20.7867 17.856 21.2667 16.9947L21.704 16.2107Z" stroke="#FAFAFA" stroke-width="2"/>
</g>
<defs>
<clipPath id="clip0_5_57">
<rect width="32" height="32" fill="white" transform="translate(9.5 9)"/>
</clipPath>
</defs>
</svg>
