<svg width="41" height="40" viewBox="0 0 41 40" fill="none" xmlns="http://www.w3.org/2000/svg">
<path d="M13.5246 10.2524C13.2149 10.2073 12.899 10.2696 12.6296 10.429H12.6063C11.9813 10.7957 11.418 11.2574 10.938 11.8007C10.538 12.2624 10.3213 12.729 10.2646 13.179C10.2313 13.4457 10.2546 13.7157 10.333 13.9707L10.363 13.9874C10.813 15.309 11.3996 16.5807 12.1163 17.7774C13.0404 19.4582 14.1776 21.0127 15.4996 22.4024L15.5396 22.459L15.603 22.5057L15.6413 22.5507L15.688 22.5907C17.0825 23.9167 18.6407 25.0593 20.3246 25.9907C22.2496 27.039 23.418 27.534 24.1196 27.7407V27.7507C24.3246 27.814 24.5113 27.8424 24.6996 27.8424C25.2972 27.7982 25.8628 27.5553 26.3063 27.1524C26.848 26.6724 27.3063 26.1074 27.663 25.479V25.4674C27.998 24.834 27.8846 24.2374 27.4013 23.8324C26.4305 22.9841 25.3807 22.2306 24.2663 21.5824C23.5196 21.1774 22.7613 21.4224 22.4546 21.8324L21.7996 22.659C21.463 23.069 20.853 23.0124 20.853 23.0124L20.8363 23.0224C16.2846 21.8607 15.0696 17.2524 15.0696 17.2524C15.0696 17.2524 15.013 16.6257 15.4346 16.3057L16.2546 15.6457C16.648 15.3257 16.9213 14.569 16.4996 13.8224C15.8556 12.707 15.1037 11.6575 14.2546 10.689C14.0694 10.4611 13.8097 10.3059 13.5213 10.2507L13.5246 10.2524ZM21.2163 8.24902C20.9953 8.24902 20.7833 8.33682 20.627 8.4931C20.4708 8.64938 20.383 8.86134 20.383 9.08236C20.383 9.30337 20.4708 9.51533 20.627 9.67161C20.7833 9.82789 20.9953 9.91569 21.2163 9.91569C23.323 9.91569 25.073 10.604 26.458 11.924C27.1696 12.6457 27.7246 13.5007 28.088 14.4374C28.453 15.3757 28.6196 16.3774 28.5763 17.3807C28.567 17.6017 28.6459 17.8174 28.7956 17.9802C28.9453 18.143 29.1536 18.2397 29.3746 18.249C29.5956 18.2583 29.8113 18.1794 29.9741 18.0297C30.137 17.88 30.2337 17.6717 30.243 17.4507C30.2947 16.2165 30.0898 14.985 29.6413 13.834C29.1909 12.6776 28.5079 11.6259 27.6346 10.744L27.618 10.7274C25.8996 9.08569 23.7263 8.24902 21.2163 8.24902Z" fill="#FAFAFA"/>
<path d="M21.1579 10.989C20.9369 10.989 20.7249 11.0768 20.5687 11.233C20.4124 11.3893 20.3246 11.6013 20.3246 11.8223C20.3246 12.0433 20.4124 12.2553 20.5687 12.4116C20.7249 12.5678 20.9369 12.6556 21.1579 12.6556H21.1863C22.7063 12.764 23.8129 13.2706 24.5879 14.1023C25.3829 14.959 25.7946 16.024 25.7629 17.3406C25.7578 17.5617 25.8408 17.7756 25.9934 17.9355C26.1461 18.0954 26.3561 18.1881 26.5771 18.1931C26.7981 18.1982 27.0121 18.1153 27.172 17.9626C27.3318 17.8099 27.4245 17.6 27.4296 17.379C27.4696 15.6506 26.9129 14.159 25.8096 12.969V12.9656C24.6813 11.7556 23.1329 11.1156 21.2696 10.9906L21.2413 10.9873L21.1579 10.989Z" fill="#FAFAFA"/>
<path d="M21.1263 13.7806C21.0148 13.7707 20.9024 13.7835 20.7959 13.818C20.6894 13.8526 20.591 13.9082 20.5065 13.9816C20.422 14.0551 20.3531 14.1448 20.304 14.2454C20.255 14.346 20.2267 14.4555 20.2209 14.5673C20.215 14.6791 20.2318 14.791 20.2701 14.8961C20.3085 15.0013 20.3676 15.0977 20.4441 15.1795C20.5205 15.2613 20.6126 15.3269 20.7149 15.3723C20.8173 15.4178 20.9277 15.4421 21.0396 15.4439C21.7363 15.4806 22.1813 15.6906 22.4613 15.9722C22.743 16.2556 22.953 16.7106 22.9913 17.4222C22.9934 17.5341 23.018 17.6443 23.0636 17.7465C23.1092 17.8486 23.1749 17.9405 23.2567 18.0167C23.3386 18.0929 23.435 18.1519 23.5401 18.19C23.6452 18.2282 23.757 18.2448 23.8687 18.2389C23.9804 18.233 24.0897 18.2046 24.1902 18.1555C24.2907 18.1064 24.3803 18.0376 24.4537 17.9532C24.527 17.8687 24.5826 17.7704 24.6171 17.664C24.6517 17.5576 24.6644 17.4453 24.6546 17.3339C24.6013 16.3339 24.288 15.4506 23.6463 14.8006C23.0013 14.1506 22.123 13.8339 21.1263 13.7806Z" fill="#FAFAFA"/>
<path fill-rule="evenodd" clip-rule="evenodd" d="M12.028 3.88912C17.3315 2.70363 22.8312 2.70363 28.1347 3.88912L28.6997 4.01412C30.25 4.3607 31.6739 5.13033 32.8131 6.23749C33.9524 7.34465 34.7623 8.74598 35.153 10.2858C36.4992 15.5906 36.4992 21.1476 35.153 26.4525C34.7623 27.9923 33.9524 29.3936 32.8131 30.5007C31.6739 31.6079 30.25 32.3775 28.6997 32.7241L28.133 32.8491C24.8114 33.5919 21.403 33.8718 18.0047 33.6808L13.583 37.6375C13.4163 37.7867 13.2126 37.8885 12.9932 37.9321C12.7737 37.9758 12.5466 37.9598 12.3354 37.8857C12.1243 37.8116 11.9369 37.6823 11.7928 37.5111C11.6488 37.3399 11.5533 37.1331 11.5163 36.9125L10.7847 32.5425C9.38165 32.1059 8.11403 31.3168 7.10297 30.2506C6.0919 29.1844 5.37118 27.8767 5.00968 26.4525C3.66344 21.1476 3.66344 15.5906 5.00968 10.2858C5.40038 8.74598 6.21035 7.34465 7.34957 6.23749C8.4888 5.13033 9.91269 4.3607 11.463 4.01412L12.028 3.88912ZM27.5897 6.32745C22.6451 5.22213 17.5176 5.22213 12.573 6.32745L12.0063 6.45412C10.9075 6.70021 9.89846 7.24605 9.09114 8.03101C8.28382 8.81597 7.70987 9.80933 7.43302 10.9008C6.18921 15.802 6.18921 20.9362 7.43302 25.8375C7.71 26.9291 8.2842 27.9226 9.09184 28.7076C9.89947 29.4926 10.9089 30.0383 12.008 30.2841L12.158 30.3175C12.4007 30.3717 12.6216 30.4971 12.7926 30.6776C12.9636 30.8581 13.0769 31.0856 13.118 31.3308L13.608 34.2608L16.728 31.4691C16.8526 31.3573 16.9984 31.2717 17.1567 31.2173C17.315 31.1629 17.4827 31.1408 17.6497 31.1525C20.9815 31.3888 24.3299 31.139 27.5897 30.4108L28.1547 30.2841C29.2538 30.0383 30.2632 29.4926 31.0709 28.7076C31.8785 27.9226 32.4527 26.9291 32.7297 25.8375C33.973 20.9375 33.973 15.8025 32.7297 10.9008C32.4527 9.80912 31.8785 8.81561 31.0709 8.03063C30.2632 7.24565 29.2538 6.69994 28.1547 6.45412L27.5897 6.32745Z" fill="#FAFAFA"/>
</svg>
