<svg width="40" height="40" viewBox="0 0 40 40" fill="none" xmlns="http://www.w3.org/2000/svg">
<path d="M13.275 10.3363C12.9652 10.2913 12.6494 10.3536 12.38 10.513H12.3567C11.7317 10.8797 11.1683 11.3413 10.6883 11.8847C10.2883 12.3463 10.0717 12.813 10.015 13.263C9.98166 13.5297 10.005 13.7997 10.0833 14.0547L10.1133 14.0713C10.5633 15.393 11.15 16.6647 11.8667 17.8613C12.7907 19.5422 13.9279 21.0967 15.25 22.4863L15.29 22.543L15.3533 22.5897L15.3917 22.6347L15.4383 22.6747C16.8329 24.0007 18.391 25.1433 20.075 26.0747C22 27.123 23.1683 27.618 23.87 27.8247V27.8347C24.075 27.898 24.2617 27.9263 24.45 27.9263C25.0476 27.8822 25.6132 27.6393 26.0567 27.2363C26.5983 26.7563 27.0567 26.1913 27.4133 25.563V25.5513C27.7483 24.918 27.635 24.3213 27.1517 23.9163C26.1808 23.0681 25.131 22.3146 24.0167 21.6663C23.27 21.2613 22.5117 21.5063 22.205 21.9163L21.55 22.743C21.2133 23.153 20.6033 23.0963 20.6033 23.0963L20.5867 23.1063C16.035 21.9447 14.82 17.3363 14.82 17.3363C14.82 17.3363 14.7633 16.7097 15.185 16.3897L16.005 15.7297C16.3983 15.4097 16.6717 14.653 16.25 13.9063C15.606 12.7909 14.8541 11.7415 14.005 10.773C13.8198 10.5451 13.5601 10.3899 13.2717 10.3347L13.275 10.3363ZM20.9667 8.33301C20.7456 8.33301 20.5337 8.42081 20.3774 8.57709C20.2211 8.73337 20.1333 8.94533 20.1333 9.16634C20.1333 9.38735 20.2211 9.59932 20.3774 9.7556C20.5337 9.91188 20.7456 9.99967 20.9667 9.99967C23.0733 9.99967 24.8233 10.688 26.2083 12.008C26.92 12.7297 27.475 13.5847 27.8383 14.5213C28.2033 15.4597 28.37 16.4613 28.3267 17.4647C28.3174 17.6857 28.3963 17.9013 28.546 18.0642C28.6957 18.227 28.904 18.3237 29.125 18.333C29.346 18.3423 29.5617 18.2634 29.7245 18.1137C29.8873 17.964 29.984 17.7557 29.9933 17.5347C30.045 16.3005 29.8402 15.069 29.3917 13.918C28.9412 12.7616 28.2582 11.7099 27.385 10.828L27.3683 10.8113C25.65 9.16967 23.4767 8.33301 20.9667 8.33301Z" fill="#090909"/>
<path d="M20.9083 11.073C20.6873 11.073 20.4753 11.1608 20.319 11.317C20.1627 11.4733 20.075 11.6853 20.075 11.9063C20.075 12.1273 20.1627 12.3393 20.319 12.4955C20.4753 12.6518 20.6873 12.7396 20.9083 12.7396H20.9366C22.4566 12.848 23.5633 13.3546 24.3383 14.1863C25.1333 15.043 25.545 16.108 25.5133 17.4246C25.5082 17.6456 25.5911 17.8596 25.7438 18.0195C25.8965 18.1794 26.1064 18.272 26.3275 18.2771C26.5485 18.2822 26.7624 18.1993 26.9223 18.0466C27.0822 17.8939 27.1749 17.684 27.18 17.463C27.22 15.7346 26.6633 14.243 25.56 13.053V13.0496C24.4316 11.8396 22.8833 11.1996 21.02 11.0746L20.9916 11.0713L20.9083 11.073Z" fill="#090909"/>
<path d="M20.8767 13.8646C20.7651 13.8547 20.6528 13.8674 20.5463 13.902C20.4398 13.9365 20.3414 13.9922 20.2568 14.0656C20.1723 14.139 20.1035 14.2288 20.0544 14.3294C20.0053 14.43 19.977 14.5395 19.9712 14.6513C19.9654 14.7631 19.9822 14.8749 20.0205 14.9801C20.0589 15.0853 20.118 15.1817 20.1944 15.2635C20.2709 15.3453 20.363 15.4109 20.4653 15.4563C20.5676 15.5017 20.6781 15.5261 20.79 15.5279C21.4867 15.5646 21.9317 15.7746 22.2117 16.0562C22.4933 16.3396 22.7033 16.7946 22.7417 17.5062C22.7438 17.6181 22.7683 17.7283 22.8139 17.8305C22.8595 17.9326 22.9252 18.0245 23.0071 18.1007C23.089 18.1769 23.1853 18.2359 23.2905 18.274C23.3956 18.3122 23.5074 18.3288 23.6191 18.3229C23.7307 18.317 23.8401 18.2886 23.9406 18.2395C24.0411 18.1904 24.1307 18.1216 24.204 18.0371C24.2774 17.9527 24.333 17.8543 24.3675 17.748C24.402 17.6416 24.4148 17.5293 24.405 17.4179C24.3517 16.4179 24.0383 15.5346 23.3967 14.8846C22.7517 14.2346 21.8733 13.9179 20.8767 13.8646Z" fill="#090909"/>
<path fill-rule="evenodd" clip-rule="evenodd" d="M11.7784 3.9731C17.0818 2.78761 22.5816 2.78761 27.8851 3.9731L28.45 4.0981C30.0004 4.44469 31.4243 5.21432 32.5635 6.32148C33.7027 7.42863 34.5127 8.82997 34.9034 10.3698C36.2496 15.6746 36.2496 21.2316 34.9034 26.5364C34.5127 28.0762 33.7027 29.4776 32.5635 30.5847C31.4243 31.6919 30.0004 32.4615 28.45 32.8081L27.8834 32.9331C24.5618 33.6759 21.1534 33.9558 17.755 33.7648L13.3334 37.7214C13.1667 37.8707 12.963 37.9725 12.7435 38.0161C12.5241 38.0598 12.2969 38.0438 12.0858 37.9697C11.8747 37.8956 11.6873 37.7662 11.5432 37.595C11.3991 37.4239 11.3036 37.2171 11.2667 36.9964L10.535 32.6264C9.13202 32.1899 7.8644 31.4008 6.85333 30.3346C5.84227 29.2684 5.12154 27.9607 4.76005 26.5364C3.41381 21.2316 3.41381 15.6746 4.76005 10.3698C5.15075 8.82997 5.96071 7.42863 7.09994 6.32148C8.23917 5.21432 9.66305 4.44469 11.2134 4.0981L11.7784 3.9731ZM27.34 6.41144C22.3955 5.30611 17.2679 5.30611 12.3234 6.41144L11.7567 6.5381C10.6579 6.7842 9.64883 7.33003 8.84151 8.11499C8.03419 8.89995 7.46023 9.89331 7.18338 10.9848C5.93957 15.886 5.93957 21.0202 7.18338 25.9214C7.46037 27.0131 8.03457 28.0066 8.8422 28.7916C9.64984 29.5766 10.6593 30.1223 11.7584 30.3681L11.9084 30.4014C12.151 30.4557 12.372 30.5811 12.543 30.7616C12.714 30.9421 12.8273 31.1695 12.8684 31.4148L13.3584 34.3448L16.4784 31.5531C16.603 31.4413 16.7488 31.3556 16.9071 31.3013C17.0654 31.2469 17.233 31.2248 17.4 31.2364C20.7318 31.4728 24.0802 31.223 27.34 30.4948L27.9051 30.3681C29.0042 30.1223 30.0136 29.5766 30.8212 28.7916C31.6289 28.0066 32.2031 27.0131 32.48 25.9214C33.7234 21.0214 33.7234 15.8864 32.48 10.9848C32.2031 9.8931 31.6289 8.89959 30.8212 8.11461C30.0136 7.32963 29.0042 6.78392 27.9051 6.5381L27.34 6.41144Z" fill="#090909"/>
</svg>
