<svg width="51" height="50" viewBox="0 0 51 50" fill="none" xmlns="http://www.w3.org/2000/svg">
<circle cx="25.5" cy="25" r="25" fill="#0941CA"/>
<path d="M21.4667 20.4668L35.3333 34.3335M21.4667 29.5335L35.3333 15.6668M14 18.3335C14 19.3944 14.4214 20.4118 15.1716 21.1619C15.9217 21.9121 16.9391 22.3335 18 22.3335C19.0609 22.3335 20.0783 21.9121 20.8284 21.1619C21.5786 20.4118 22 19.3944 22 18.3335C22 17.2726 21.5786 16.2552 20.8284 15.5051C20.0783 14.7549 19.0609 14.3335 18 14.3335C16.9391 14.3335 15.9217 14.7549 15.1716 15.5051C14.4214 16.2552 14 17.2726 14 18.3335ZM14 31.6668C14 32.7277 14.4214 33.7451 15.1716 34.4953C15.9217 35.2454 16.9391 35.6668 18 35.6668C19.0609 35.6668 20.0783 35.2454 20.8284 34.4953C21.5786 33.7451 22 32.7277 22 31.6668C22 30.606 21.5786 29.5885 20.8284 28.8384C20.0783 28.0883 19.0609 27.6668 18 27.6668C16.9391 27.6668 15.9217 28.0883 15.1716 28.8384C14.4214 29.5885 14 30.606 14 31.6668Z" stroke="#FAFAFA" stroke-width="2" stroke-linecap="round" stroke-linejoin="round"/>
</svg>
