<svg width="51" height="50" viewBox="0 0 51 50" fill="none" xmlns="http://www.w3.org/2000/svg">
<circle cx="25.5" cy="25" r="25" fill="#0941CA"/>
<path d="M20.9667 20.4666L34.8333 34.3333M20.9667 29.5333L34.8333 15.6666M13.5 18.3333C13.5 19.3942 13.9214 20.4116 14.6716 21.1617C15.4217 21.9119 16.4391 22.3333 17.5 22.3333C18.5609 22.3333 19.5783 21.9119 20.3284 21.1617C21.0786 20.4116 21.5 19.3942 21.5 18.3333C21.5 17.2724 21.0786 16.255 20.3284 15.5049C19.5783 14.7547 18.5609 14.3333 17.5 14.3333C16.4391 14.3333 15.4217 14.7547 14.6716 15.5049C13.9214 16.255 13.5 17.2724 13.5 18.3333ZM13.5 31.6666C13.5 32.7275 13.9214 33.7449 14.6716 34.4951C15.4217 35.2452 16.4391 35.6666 17.5 35.6666C18.5609 35.6666 19.5783 35.2452 20.3284 34.4951C21.0786 33.7449 21.5 32.7275 21.5 31.6666C21.5 30.6058 21.0786 29.5884 20.3284 28.8382C19.5783 28.0881 18.5609 27.6666 17.5 27.6666C16.4391 27.6666 15.4217 28.0881 14.6716 28.8382C13.9214 29.5884 13.5 30.6058 13.5 31.6666Z" stroke="#FAFAFA" stroke-width="2" stroke-linecap="round" stroke-linejoin="round"/>
</svg>
