<svg width="32" height="32" viewBox="0 0 32 32" fill="none" xmlns="http://www.w3.org/2000/svg">
<g clip-path="url(#clip0_26_15)">
<path d="M19 6C20.6819 6.4429 22.2161 7.32427 23.4459 8.55409C24.6757 9.78391 25.5571 11.3181 26 13" stroke="#090909" stroke-width="3" stroke-linecap="round" stroke-linejoin="round"/>
<path d="M18 10C20.065 10.5525 21.4475 11.935 22 14" stroke="#090909" stroke-width="3" stroke-linecap="round" stroke-linejoin="round"/>
<path d="M19.5488 19.168C19.6872 19.0758 19.8465 19.0197 20.0122 19.0046C20.1779 18.9895 20.3447 19.016 20.4975 19.0817L26.3925 21.723C26.5912 21.8079 26.757 21.9548 26.8652 22.1419C26.9733 22.3289 27.018 22.5459 26.9925 22.7605C26.7983 24.2118 26.0836 25.5432 24.9813 26.507C23.8791 27.4709 22.4642 28.0016 21 28.0005C16.4913 28.0005 12.1673 26.2094 8.97919 23.0213C5.79107 19.8332 4 15.5091 4 11.0005C3.99888 9.53622 4.5296 8.1214 5.49345 7.01913C6.45731 5.91686 7.78869 5.20216 9.24 5.00796C9.45454 4.98247 9.67157 5.02715 9.8586 5.13531C10.0456 5.24347 10.1926 5.4093 10.2775 5.60796L12.9188 11.508C12.9836 11.6595 13.0101 11.8247 12.9957 11.9889C12.9813 12.1532 12.9265 12.3113 12.8363 12.4492L10.165 15.6255C10.0702 15.7684 10.0142 15.9336 10.0024 16.1047C9.99055 16.2758 10.0233 16.4471 10.0975 16.6017C11.1313 18.718 13.3188 20.8792 15.4413 21.903C15.5967 21.9768 15.7688 22.0089 15.9404 21.9959C16.112 21.983 16.2774 21.9255 16.42 21.8292L19.5488 19.168Z" stroke="#090909" stroke-width="3" stroke-linecap="round" stroke-linejoin="round"/>
</g>
<defs>
<clipPath id="clip0_26_15">
<rect width="32" height="32" fill="white"/>
</clipPath>
</defs>
</svg>
