<svg width="51" height="50" viewBox="0 0 51 50" fill="none" xmlns="http://www.w3.org/2000/svg">
<circle cx="25.5" cy="25" r="25" fill="#0941CA"/>
<g clip-path="url(#clip0_21_365)">
<path d="M29 15C30.6819 15.4429 32.2161 16.3243 33.4459 17.5541C34.6757 18.7839 35.5571 20.3181 36 22" stroke="#FAFAFA" stroke-width="2" stroke-linecap="round" stroke-linejoin="round"/>
<path d="M28 19C30.065 19.5525 31.4475 20.935 32 23" stroke="#FAFAFA" stroke-width="2" stroke-linecap="round" stroke-linejoin="round"/>
<path d="M29.5488 28.1675C29.6872 28.0753 29.8465 28.0192 30.0122 28.0041C30.1779 27.9891 30.3447 28.0156 30.4975 28.0812L36.3925 30.7225C36.5912 30.8074 36.757 30.9544 36.8651 31.1414C36.9733 31.3284 37.018 31.5454 36.9925 31.76C36.7983 33.2113 36.0836 34.5427 34.9813 35.5065C33.8791 36.4704 32.4642 37.0011 31 37C26.4913 37 22.1673 35.2089 18.9792 32.0208C15.7911 28.8327 14 24.5087 14 20C13.9989 18.5357 14.5296 17.1209 15.4935 16.0186C16.4573 14.9164 17.7887 14.2017 19.24 14.0075C19.4545 13.982 19.6716 14.0267 19.8586 14.1348C20.0456 14.243 20.1926 14.4088 20.2775 14.6075L22.9188 20.5075C22.9836 20.659 23.0101 20.8242 22.9957 20.9885C22.9813 21.1527 22.9265 21.3108 22.8363 21.4487L20.165 24.625C20.0702 24.768 20.0142 24.9331 20.0024 25.1042C19.9906 25.2753 20.0233 25.4466 20.0975 25.6012C21.1313 27.7175 23.3188 29.8787 25.4413 30.9025C25.5967 30.9763 25.7688 31.0084 25.9404 30.9954C26.112 30.9825 26.2773 30.925 26.42 30.8287L29.5488 28.1675Z" stroke="#FAFAFA" stroke-width="2" stroke-linecap="round" stroke-linejoin="round"/>
</g>
<defs>
<clipPath id="clip0_21_365">
<rect width="32" height="32" fill="white" transform="translate(10 9)"/>
</clipPath>
</defs>
</svg>
