<svg width="40" height="40" viewBox="0 0 40 40" fill="none" xmlns="http://www.w3.org/2000/svg">
<g clip-path="url(#clip0_26_42)">
<path d="M12.5 21.0732L26.6031 33.4373C26.7656 33.5806 26.9625 33.6793 27.1746 33.7235C27.3866 33.7678 27.6066 33.7562 27.8128 33.6899C28.019 33.6236 28.2045 33.5048 28.351 33.3452C28.4975 33.1856 28.6 32.9906 28.6484 32.7795L35 5.19042C35.0062 5.16275 35.0048 5.13392 34.9958 5.10702C34.9869 5.08011 34.9708 5.05614 34.9493 5.03768C34.9278 5.01921 34.9016 5.00695 34.8737 5.00221C34.8457 4.99746 34.817 5.00041 34.7906 5.01073L3.125 17.4029C2.92842 17.4786 2.76169 17.616 2.64983 17.7944C2.53797 17.9729 2.48702 18.1829 2.50463 18.3928C2.52224 18.6027 2.60745 18.8012 2.74749 18.9585C2.88752 19.1159 3.07481 19.2236 3.28125 19.2654L12.5 21.0732Z" stroke="#090909" stroke-width="3" stroke-linecap="round" stroke-linejoin="round"/>
<path d="M12.5 21.073L34.9078 5.01367" stroke="#090909" stroke-width="3" stroke-linecap="round" stroke-linejoin="round"/>
<path d="M19.4328 27.1529L14.65 32.1154C14.4772 32.2947 14.2547 32.4183 14.0112 32.4704C13.7677 32.5224 13.5142 32.5005 13.2831 32.4075C13.0521 32.3145 12.8542 32.1546 12.7146 31.9483C12.5751 31.7421 12.5004 31.4988 12.5 31.2498V21.0732" stroke="#090909" stroke-width="3" stroke-linecap="round" stroke-linejoin="round"/>
</g>
<defs>
<clipPath id="clip0_26_42">
<rect width="40" height="40" fill="white"/>
</clipPath>
</defs>
</svg>
